PathFileType	4	(X/Y/Z)	E:\Marcel_BSc\Ayumi_22_01_2025\22-01-2025\conv_dl_3.trc
DataRate	CameraRate	NumFrames	NumMarkers	Units	OrigDataRate	OrigDataStartFrame	OrigNumFrames
200.0	200.0	4	47	mm	200.0	1153	2304	
Frame#	Time	FHD			LBHD			RBHD			RBAR			LBAR			RSACR			LSACR			USACR			C7			CLAV			T10			RSHO			LSHO			LTHI1			LTHI3			LTHI2			LTIB1			LTIB2			LTIB3			LMMAL			LLMAL			LHEE			LMT1			LMT5			LMT3			RTHI1			RTHI2			RTHI3			RTIB1			RTIB3			RTIB2			RLMAL			RMMAL			RHEE			RMT5			RMT1			RMT3			LDUPA			LMUPA			LUUPA			LRAD			RUL			RRAD			RUFIN			RMUPA			RDUPA			RUUPA			
		X1	Y1	Z1	X2	Y2	Z2	X3	Y3	Z3	X4	Y4	Z4	X5	Y5	Z5	X6	Y6	Z6	X7	Y7	Z7	X8	Y8	Z8	X9	Y9	Z9	X10	Y10	Z10	X11	Y11	Z11	X12	Y12	Z12	X13	Y13	Z13	X14	Y14	Z14	X15	Y15	Z15	X16	Y16	Z16	X17	Y17	Z17	X18	Y18	Z18	X19	Y19	Z19	X20	Y20	Z20	X21	Y21	Z21	X22	Y22	Z22	X23	Y23	Z23	X24	Y24	Z24	X25	Y25	Z25	X26	Y26	Z26	X27	Y27	Z27	X28	Y28	Z28	X29	Y29	Z29	X30	Y30	Z30	X31	Y31	Z31	X32	Y32	Z32	X33	Y33	Z33	X34	Y34	Z34	X35	Y35	Z35	X36	Y36	Z36	X37	Y37	Z37	X38	Y38	Z38	X39	Y39	Z39	X40	Y40	Z40	X41	Y41	Z41	X42	Y42	Z42	X43	Y43	Z43	X44	Y44	Z44	X45	Y45	Z45	X46	Y46	Z46	X47	Y47	Z47	
1153	5.755	9.8303452	1534.4525	-644.2782	17.055302	1516.8772	-577.08282	47.741577	1492.0784	-710.0957	239.88766	682.30774	-1744.7795	146.69864	595.8725	473.59592	431.65955	975.1944	-687.487	429.59607	974.84454	-614.17017	424.42358	986.13635	-649.97839	155.18095	1335.011	-623.94946	71.354195	1204.6481	-634.77917	338.91522	1143.0537	-643.77057	61.35265	1222.16	-784.37878	81.07914	1213.3169	-466.07144	312.07727	606.56207	-455.32959	309.63568	542.54358	-466.49072	266.24295	560.91199	-449.44781	250.29594	242.70651	-436.78601	301.28522	238.42963	-442.51733	270.91333	180.35698	-443.11032	258.68207	74.621292	-524.15454	281.38818	71.866547	-450.44116	319.35632	35.971508	-494.41302	122.38552	45.868793	-476.61469	151.38637	26.925062	-401.89551	124.54919	41.945408	-442.58817	323.44888	605.48218	-836.44885	276.67749	560.06567	-840.01349	323.45258	541.01367	-825.80231	266.36169	278.40948	-842.01318	285.96451	216.36909	-831.4845	316.46179	274.17667	-835.79596	292.41263	73.087189	-809.40417	254.00481	80.657181	-741.82935	329.78192	30.653009	-761.35645	150.31136	36.738094	-843.38879	128.81509	43.593277	-792.52856	137.4308	40.644642	-822.12207	212.53786	1031.4645	-401.37704	163.48196	1025.4409	-409.70789	155.75632	1087.0254	-412.54071	208.37178	705.47119	-361.44687	154.6757	723.30084	-939.50116	156.7619	713.59973	-877.21637	161.44327	638.82629	-881.83105	118.63611	1122.1089	-863.13434	127.69943	1062.936	-881.4527	165.42911	1132.3854	-874.97894
1154	5.76	12.909167	1538.5308	-644.03516	20.303541	1520.9746	-576.86218	50.862232	1496.39	-709.94928	239.91827	686.17078	-1744.8136	145.83598	599.26947	473.40802	430.48724	975.10339	-687.57019	428.37289	974.67505	-614.20789	423.33749	986.0014	-650.05701	158.60373	1338.4156	-624.09692	73.256035	1209.0002	-634.88251	339.87445	1143.6591	-643.85846	63.587612	1226.8151	-784.59906	84.787064	1218.462	-459.05521	310.63098	606.98151	-455.78711	308.55859	542.94836	-466.90872	264.97739	561.18298	-449.97958	250.35176	242.80006	-436.88495	301.27405	238.60349	-442.71851	271.06531	180.21483	-443.57779	258.62305	74.666664	-524.12012	281.34958	71.92392	-450.42746	319.28641	36.05648	-494.39771	122.36787	45.854488	-476.59061	151.38423	26.906359	-401.86755	124.54308	41.883232	-442.6214	323.02219	605.86224	-836.01764	276.63788	560.19849	-839.7937	323.45474	541.33044	-825.48816	266.7435	278.80188	-841.74237	286.29321	216.49474	-831.31824	316.88806	274.25873	-835.39917	292.47571	73.075706	-809.38635	254.00984	80.692024	-741.83868	329.74847	30.674438	-761.3183	150.33743	36.708832	-843.39514	128.79144	43.605011	-792.55743	137.41173	40.65971	-822.14191	213.86095	1034.8301	-401.53012	164.79337	1029.1746	-409.81396	156.83817	1091.067	-412.89532	208.07668	708.93268	-361.56598	154.38554	727.04181	-939.7735	156.29755	717.23907	-878.0083	161.06181	642.57867	-881.99664	119.98512	1126.0995	-863.35797	128.62743	1066.8273	-881.71277	166.83336	1136.0806	-875.25702
1155	5.765	15.940455	1542.6635	-643.60596	23.528131	1524.95	-576.52521	53.899681	1500.7349	-709.73071	240.01793	690.34912	-1744.823	144.93922	602.6925	473.21866	429.30014	974.90387	-687.64435	427.06662	974.50397	-614.32062	422.17734	985.8869	-650.09625	162.06656	1341.7539	-624.17108	75.229362	1213.1964	-635.08612	340.65662	1144.462	-643.98859	65.845726	1231.3124	-784.91724	86.110786	1222.1099	-465.76074	309.34924	607.41235	-456.19656	307.53424	543.409	-467.29562	263.82114	561.44824	-450.50421	249.32811	243.45801	-437.9967	301.30402	238.79767	-443.02151	271.14761	180.35857	-443.7059	258.57761	74.704155	-524.07697	281.34445	71.964958	-450.4017	319.27887	36.049183	-494.42084	122.36224	45.881451	-476.59888	151.37769	26.894444	-401.83771	124.2737	41.651901	-442.9505	322.6232	606.37921	-835.48254	276.55325	560.36957	-839.47363	323.5538	541.76233	-825.13556	267.25391	278.94324	-841.55151	286.74152	216.5341	-831.15356	317.02505	274.2197	-834.76514	292.55042	73.06234	-809.36029	253.9994	80.715279	-741.83826	329.73227	30.685604	-761.29156	150.32423	36.735565	-843.41003	128.78386	43.608685	-792.57965	137.39333	40.659084	-822.16095	215.37709	1038.2568	-401.64191	166.20055	1032.9148	-409.8685	158.74588	1094.7509	-412.85117	207.77107	712.31757	-361.6709	154.07939	730.7547	-940.0686	155.93228	720.97363	-878.2674	160.6501	646.23511	-882.23633	121.43919	1130.0488	-863.56714	129.66603	1070.7072	-881.9715	168.35194	1139.6615	-875.50708
1156	5.77	18.903625	1546.7129	-643.2467	26.670517	1528.7975	-576.14545	56.882725	1505.0383	-709.50159	239.8427	694.36456	-1744.9055	144.0444	606.00043	473.00378	428.00235	974.58777	-687.68707	425.70465	974.3385	-614.38391	420.93549	985.7854	-650.19147	165.49995	1345.0078	-624.3175	77.148712	1217.4011	-635.25464	341.47348	1145.11	-644.00494	68.203697	1235.8915	-785.19629	88.611717	1226.4805	-465.62827	308.74561	608.95551	-456.39505	306.52765	543.94843	-467.62167	262.81696	561.68237	-450.9296	250.9458	242.81499	-437.03458	301.42142	238.90839	-443.25882	271.1969	180.74841	-443.46646	258.53534	74.739868	-524.02997	281.34689	71.994911	-450.35632	319.24835	36.097401	-494.39636	122.35287	45.904152	-476.57315	151.29002	26.714403	-401.97244	124.29255	41.672943	-442.92407	322.8165	606.70837	-836.15515	276.68777	560.49994	-839.25128	323.54962	542.58112	-824.90741	267.94751	278.82883	-841.37909	287.19052	216.86409	-830.85864	317.48639	274.35999	-834.32336	292.60129	73.104118	-809.31335	253.99164	80.750374	-741.84509	329.7225	30.721922	-761.2373	150.31123	36.737305	-843.42657	128.86359	43.462856	-792.8512	137.39163	40.674038	-822.17242	216.9476	1041.651	-401.78397	167.65852	1036.6398	-409.88275	160.57047	1098.5032	-412.86292	207.46896	715.7171	-361.81601	153.79704	734.47015	-940.3103	155.66772	724.8573	-877.95544	160.22363	649.84052	-882.46393	123.00203	1133.9465	-863.87872	130.79225	1074.5812	-882.17926	169.99445	1143.2128	-875.77441
